<svg id="Ebene_1" data-name="Ebene 1" xmlns="http://www.w3.org/2000/svg" viewBox="0 0 417.92 435.79">
<defs>
    <style>
        path{
            fill: #212121;
        }

        @media (prefers-color-scheme: dark) {
            path{
                fill: #9b9893;
            }
        }
    </style>
</defs>

<path class="cls-1" d="M225.35,515.39V454.7c0-20-19.89-36.26-44.34-36.26s-44.34,16.27-44.34,36.26v60.69H108c-.15,0-.6-.43-.6-1.24V250.28c0-3.44-2.5-6.24-5.59-6.24H94.14a.49.49,0,0,1-.28-.2,1.84,1.84,0,0,1-.26-1.51l8.91-36a6.12,6.12,0,0,0,.18-1l3.65-39.84c.06-.69.44-1.06.58-1.06H282.81c.14,0,.52.37.58,1.06L287,205.33a6.52,6.52,0,0,0,.18,1.06l9,35.94a1.77,1.77,0,0,1-.26,1.51.45.45,0,0,1-.27.2h-7.67c-3.08,0-5.59,2.8-5.59,6.24V514.15c0,.81-.44,1.24-.59,1.24ZM139.89,297.81a8.55,8.55,0,0,0-8.54,8.54v27.53a8.56,8.56,0,0,0,8.54,8.55H153.1a8.56,8.56,0,0,0,8.54-8.55V306.35a8.55,8.55,0,0,0-8.54-8.54Zm96.74-.45a8.56,8.56,0,0,0-8.55,8.54v27.53a8.56,8.56,0,0,0,8.55,8.54h13.21a8.55,8.55,0,0,0,8.54-8.54V305.9a8.55,8.55,0,0,0-8.54-8.54Zm-96.74-95.73a8.55,8.55,0,0,0-8.54,8.54V237.7a8.55,8.55,0,0,0,8.54,8.54H153.1a8.55,8.55,0,0,0,8.54-8.54V210.17a8.55,8.55,0,0,0-8.54-8.54Zm96.74-.45a8.56,8.56,0,0,0-8.55,8.54v27.53a8.56,8.56,0,0,0,8.55,8.54h13.21a8.55,8.55,0,0,0,8.54-8.54V209.72a8.55,8.55,0,0,0-8.54-8.54Z" transform="translate(-91.04 -82.11)"/><path class="cls-1" d="M281,166.94l3.46,38.61a8.78,8.78,0,0,0,.24,1.45l8.64,34.54h-5.43c-4.46,0-8.09,3.92-8.09,8.74V512.89h-52V454.7c0-21.37-21-38.76-46.84-38.76s-46.84,17.39-46.84,38.76v58.19H109.9V250.28c0-4.82-3.63-8.74-8.09-8.74H96.37L104.94,207a10.92,10.92,0,0,0,.24-1.41l3.54-38.63H281m-44.38,81.35h13.21a11,11,0,0,0,11-11V209.72a11,11,0,0,0-11-11H236.63a11.06,11.06,0,0,0-11,11v27.53a11.06,11.06,0,0,0,11,11m-96.74.45H153.1a11,11,0,0,0,11-11V210.17a11,11,0,0,0-11-11H139.89a11,11,0,0,0-11,11V237.7a11,11,0,0,0,11,11m96.74,95.73h13.21a11,11,0,0,0,11-11V305.9a11,11,0,0,0-11-11H236.63a11.06,11.06,0,0,0-11,11v27.53a11.06,11.06,0,0,0,11,11m-96.74.46H153.1a11.06,11.06,0,0,0,11-11.05V306.35a11.06,11.06,0,0,0-11-11H139.89a11.06,11.06,0,0,0-11,11v27.53a11.06,11.06,0,0,0,11,11.05m142.92-183H106.92a3.37,3.37,0,0,0-3.07,3.33l-3.65,39.84a4.54,4.54,0,0,1-.11.66l-8.92,36c-.59,2.4.9,4.81,3,4.81h7.67c1.71,0,3.09,1.68,3.09,3.74V514.15c0,2.07,1.39,3.74,3.1,3.74h31.17V454.7c0-18.64,18.74-33.76,41.84-33.76s41.84,15.12,41.84,33.76v63.19h58.89c1.71,0,3.09-1.67,3.09-3.74V250.28c0-2.06,1.39-3.74,3.09-3.74h7.67c2.07,0,3.56-2.42,3-4.82l-9-35.94a5.07,5.07,0,0,1-.11-.68l-3.57-39.82a3.38,3.38,0,0,0-3.07-3.34Zm-46.18,81.35a6,6,0,0,1-6-6V209.72a6,6,0,0,1,6-6h13.21a6,6,0,0,1,6,6v27.53a6,6,0,0,1-6,6Zm-96.74.45a6,6,0,0,1-6-6V210.17a6,6,0,0,1,6-6H153.1a6,6,0,0,1,6,6V237.7a6,6,0,0,1-6,6Zm96.74,95.73a6,6,0,0,1-6-6V305.9a6,6,0,0,1,6-6h13.21a6,6,0,0,1,6,6v27.53a6,6,0,0,1-6,6Zm-96.74.46a6,6,0,0,1-6-6.05V306.35a6,6,0,0,1,6-6H153.1a6,6,0,0,1,6,6v27.53a6,6,0,0,1-6,6.05Z" transform="translate(-91.04 -82.11)"/><path class="cls-1" d="M298.21,515.39a1.44,1.44,0,0,1-1.43-1.43V330.55a1.75,1.75,0,0,1,1.75-1.75h40a1.75,1.75,0,0,1,1.75,1.75V353.7a5.11,5.11,0,0,0,5.11,5.11h29.4a5.11,5.11,0,0,0,5.11-5.11V330.55a1.74,1.74,0,0,1,1.74-1.75h40a1.74,1.74,0,0,1,1.74,1.75V353.7a5.11,5.11,0,0,0,5.11,5.11h29.4A5.11,5.11,0,0,0,463,353.7V330.55a1.75,1.75,0,0,1,1.75-1.75h40a1.75,1.75,0,0,1,1.75,1.75V514a1.43,1.43,0,0,1-1.43,1.43Z" transform="translate(-91.04 -82.11)"/><path class="cls-1" d="M504,331.3V512.89H299.28V331.3h38.48v22.4a7.61,7.61,0,0,0,7.61,7.61h29.4a7.61,7.61,0,0,0,7.61-7.61V331.3h38.48v22.4a7.61,7.61,0,0,0,7.61,7.61h29.4a7.61,7.61,0,0,0,7.61-7.61V331.3H504m.75-5h-40a4.25,4.25,0,0,0-4.25,4.25V353.7a2.61,2.61,0,0,1-2.61,2.61h-29.4a2.61,2.61,0,0,1-2.61-2.61V330.55a4.25,4.25,0,0,0-4.25-4.25h-40a4.25,4.25,0,0,0-4.25,4.25V353.7a2.61,2.61,0,0,1-2.61,2.61h-29.4a2.61,2.61,0,0,1-2.61-2.61V330.55a4.25,4.25,0,0,0-4.25-4.25h-40a4.25,4.25,0,0,0-4.25,4.25V514a3.93,3.93,0,0,0,3.94,3.93H505A3.93,3.93,0,0,0,509,514V330.55a4.25,4.25,0,0,0-4.25-4.25Z" transform="translate(-91.04 -82.11)"/><path class="cls-1" d="M100,149.39a3.45,3.45,0,0,0,2,6.25H287.55a3.45,3.45,0,0,0,2-6.25l-43.05-30.92L196.78,82.75a3.45,3.45,0,0,0-4,0L143,118.47Z" transform="translate(-91.04 -82.11)"/></svg>